<svg xmlns="http://www.w3.org/2000/svg" width="64" height="48" viewBox="0 0 64 48" aria-hidden="true">
  <rect width="64" height="48" fill="#FFFFFF"/>
  <rect y="0" width="64" height="4" fill="#B22234"/>
  <rect y="8" width="64" height="4" fill="#B22234"/>
  <rect y="16" width="64" height="4" fill="#B22234"/>
  <rect y="24" width="64" height="4" fill="#B22234"/>
  <rect y="32" width="64" height="4" fill="#B22234"/>
  <rect y="40" width="64" height="4" fill="#B22234"/>
  <rect width="28" height="22" fill="#3C3B6E"/>
  <g fill="#FFFFFF">
    <circle cx="5" cy="4" r="1"/>
    <circle cx="11" cy="4" r="1"/>
    <circle cx="17" cy="4" r="1"/>
    <circle cx="23" cy="4" r="1"/>
    <circle cx="8" cy="8" r="1"/>
    <circle cx="14" cy="8" r="1"/>
    <circle cx="20" cy="8" r="1"/>
    <circle cx="5" cy="12" r="1"/>
    <circle cx="11" cy="12" r="1"/>
    <circle cx="17" cy="12" r="1"/>
    <circle cx="23" cy="12" r="1"/>
    <circle cx="8" cy="16" r="1"/>
    <circle cx="14" cy="16" r="1"/>
    <circle cx="20" cy="16" r="1"/>
  </g>
</svg>
