<svg width="971" height="528" viewBox="0 0 971 528" fill="none" xmlns="http://www.w3.org/2000/svg">
<mask id="path-1-inside-1_7_11" fill="white">
<path fill-rule="evenodd" clip-rule="evenodd" d="M481.422 5.75C478.328 10.358 477.556 12.434 477.531 16.203C477.503 20.433 477.294 20.855 475.456 20.396C472.62 19.689 469.765 23.076 470.175 26.662C470.36 28.275 471.039 29.392 471.75 29.25C472.438 29.113 473.49 28.887 474.089 28.75C476.019 28.307 479.4 33.863 479.4 37.479C479.4 43.925 471.527 48.75 467.981 44.477C467.27 43.621 465.927 43.206 464.91 43.529C460.476 44.936 456.891 36.199 461 34C463.68 32.566 463.52 30.429 460.507 27.416C458.501 25.41 457.634 25.125 456.074 25.96C453.246 27.474 452.672 30.464 454.522 34.043C455.416 35.772 455.922 37.411 455.647 37.686C454.341 38.992 451.827 31.485 452.39 27.96C452.937 24.542 452.646 23.912 448.991 20.611C441.259 13.625 436.107 17.843 443.564 25.054C445.524 26.949 448.467 30.836 450.103 33.69C453.223 39.133 458 52.094 458 55.116C458 57.572 459.105 58.02 463.431 57.317C466.013 56.898 467.5 55.996 468.223 54.41C469.227 52.207 471.807 50.474 472.721 51.388C472.961 51.628 473.283 52.978 473.438 54.389C473.741 57.149 473.226 57.457 466.5 58.534C460.395 59.512 459 60.03 459.001 61.317C459.001 62.199 466.004 62.5 486.501 62.5C507.261 62.5 514 62.205 514 61.297C514 59.883 507.893 58.014 503.25 58.006C499.846 58 498.888 56.641 501.563 55.614C502.423 55.284 504.426 55.686 506.014 56.507C507.602 57.328 510.031 58 511.412 58C513.502 58 514.097 57.329 514.961 54C515.533 51.8 516.495 48.088 517.099 45.75C518.395 40.738 524.251 29.937 528.037 25.576C531.364 21.743 533.125 18.459 532.298 17.631C529.974 15.307 521.992 19.181 519.608 23.791C518.367 26.191 517.623 26.598 515.148 26.235C512.786 25.888 511.828 26.332 510.47 28.405C508.994 30.658 508.938 31.452 510.054 34.256C511.79 38.617 511.812 38.63 513.479 36.427C514.901 34.547 514.937 34.553 514.968 36.661C515.005 39.186 509.356 44.351 507.384 43.594C506.65 43.312 504.491 43.733 502.586 44.528C499.293 45.904 498.974 45.849 496.062 43.399C493.665 41.382 493 40.021 493 37.134C493 31.874 495.496 28.649 499.022 29.354C502.2 29.99 503.011 28.435 502.24 23.185C501.901 20.871 501.123 19.818 499.442 19.396C498.161 19.075 496.638 19.106 496.057 19.465C495.383 19.881 495 18.702 495 16.214C495 13.361 493.929 10.653 491.022 6.155C488.834 2.77 486.648 0 486.163 0C485.679 0 483.546 2.588 481.422 5.75ZM520.18 29.283C519.595 29.988 518.625 31.855 518.026 33.432C516.637 37.084 518.611 35.667 521.307 31.077C523.081 28.055 522.27 26.765 520.18 29.283ZM485.141 46.591C483.412 50.385 483.718 51.106 486.75 50.378C490.484 49.483 490.497 49.448 488.255 46.596L486.281 44.088L485.141 46.591ZM500 52.5C500.685 53.325 502.145 54 503.245 54C504.909 54 505.036 53.748 504 52.5C503.315 51.675 501.855 51 500.755 51C499.091 51 498.964 51.252 500 52.5ZM484.224 55.173C484.736 56.707 488.985 56.996 489.031 55.5C489.048 54.95 487.874 54.353 486.422 54.173C484.578 53.945 483.915 54.246 484.224 55.173ZM466.563 64.042C455.737 65.743 457.929 66.955 470.672 66.314C484.27 65.631 488.528 66.628 483.421 69.3C481.815 70.141 478.949 72.443 477.054 74.415L473.608 78L430.554 78.065C406.874 78.101 375.35 78.501 360.5 78.955C337.099 79.671 332.731 80.056 327.728 81.844C316.438 85.88 308.938 93.435 305.282 104.455C303.866 108.724 303.506 116.27 302.946 153.5C302.175 204.71 301.975 206.094 294.179 214.25C289.864 218.764 290.78 218.968 297.66 215.022C305.385 210.591 309.22 204.406 311.082 193.376C311.721 189.584 312.524 169.42 312.871 148.426L313.5 110.353L316.522 104.426C318.706 100.145 320.853 97.622 324.256 95.336C333.806 88.924 345.387 88.054 421.637 88.024L480.774 88L485.637 91.283C488.542 93.243 490.444 95.257 490.361 96.283C490.129 99.157 494.481 98.305 498.196 94.75C505.903 87.373 500.371 87.997 557.761 88.029C611.636 88.06 630.996 88.869 639.586 91.451C647.251 93.755 652.334 97.942 655.641 104.677L658.5 110.5L659.12 150C659.461 171.725 660.086 191.975 660.508 195C661.799 204.255 666.127 210.563 673.866 214.472L677.233 216.172L674.673 212.816C670.174 206.917 669.812 203.158 669.061 154.5C668.306 105.648 668.402 106.588 663.157 96.308C658.934 88.031 648.744 81.821 636.469 80.046C632.636 79.491 602.795 78.73 570.157 78.354C529.046 77.88 510.458 77.33 509.657 76.564C505.503 72.594 499 67.979 497.397 67.866C496.354 67.793 497.75 67.389 500.5 66.969C503.25 66.549 507.131 66.433 509.124 66.71C513.184 67.276 515.212 65.601 511.739 64.551C508.043 63.434 472.951 63.039 466.563 64.042ZM305.56 91.934C302.994 94.77 301.08 100.866 301.144 106C301.2 110.456 301.215 110.437 302.62 104C303.401 100.425 304.874 95.813 305.894 93.75C308.016 89.46 307.98 89.26 305.56 91.934ZM667.081 92.316C667.036 92.764 667.492 94.051 668.093 95.174C668.694 96.297 669.535 100.205 669.962 103.858L670.737 110.5L670.842 105C670.91 101.488 670.263 98.054 669.055 95.5C668.014 93.3 667.125 91.867 667.081 92.316ZM377.526 135C377.369 135.275 376.942 139.55 376.577 144.5C376.211 149.45 375.656 155.413 375.343 157.75C374.831 161.567 374.984 162 376.846 162C378.4 162 379.221 160.995 380.12 157.992C380.781 155.788 382.856 152.191 384.732 149.999C388.841 145.2 394.18 143.461 407.75 142.503L417 141.85V182.369V222.888L414.734 225.523C413.488 226.971 410.934 228.471 409.059 228.854C407.184 229.238 405.466 230.102 405.241 230.776C404.927 231.718 410.171 232 428 232C446.053 232 451.075 231.725 450.751 230.754C450.523 230.068 448.601 229.225 446.48 228.88C438.794 227.631 439 228.883 439 183.389V143L446.75 143.006C460.075 143.015 467.226 146.307 470.617 153.994C471.813 156.703 473.019 158 474.343 158C476.2 158 476.267 157.485 475.644 147.979L474.987 137.959L477.744 138.598C484.714 140.216 482.91 137.007 520.834 215.25L529.922 234L534.211 233.996L538.5 233.992L561.5 188.246L584.5 142.5L589.746 140C598.529 135.815 596.945 135.202 577 135.074C562.531 134.98 559 135.221 559 136.302C559 137.042 561.133 138.289 563.741 139.074C570.388 141.073 571.059 143.489 567.481 152.535C565.043 158.701 544.184 204.068 541.988 207.981C541.371 209.081 538.626 204.279 532.034 190.567C517.428 160.185 511 145.564 511 142.724C511 139.896 513.382 138 516.934 138C518.104 138 519 137.349 519 136.5C519 135.212 515.789 134.995 496.25 134.964C483.737 134.944 451.97 134.831 425.655 134.714C399.34 134.596 377.682 134.725 377.526 135ZM149.22 139.396C141.864 141.25 141.68 142.001 148.583 141.995C164.265 141.982 177.435 152.698 189.063 174.932C195.888 187.983 204.076 198.377 212.535 204.73C220.164 210.457 222.85 211.547 218.75 207.25C217.307 205.738 215.078 202.232 213.798 199.46C212.517 196.689 210.426 193.314 209.15 191.96C206.2 188.832 204.471 185.514 200.421 175.215C196.331 164.812 192.042 158.087 186.242 152.982C180.586 148.004 169.398 142.332 163.483 141.445C161.017 141.075 159 140.374 159 139.886C159 137.376 173.958 140.425 182.247 144.625C188.789 147.94 198.019 157.802 201.924 165.649C203.671 169.158 206.081 175.96 207.28 180.765C209.708 190.49 210.878 188.863 209.041 178.315C205.721 159.248 197.325 148.074 181 140.997C174.272 138.081 157.744 137.248 149.22 139.396ZM795.447 139.342C788.153 141.737 778.917 147.28 775.306 151.43C770.366 157.107 765.358 167.908 763.497 176.898C762.631 181.079 761.459 186.231 760.892 188.347C760.325 190.463 760.055 192.388 760.291 192.624C760.527 192.861 762.6 187.218 764.897 180.086C769.546 165.648 774.186 157.651 781.813 150.927C790.098 143.623 800.063 139.923 810.932 140.117L817.5 140.234L812 141.114C803.486 142.477 790.845 149.184 784.35 155.784C780.036 160.167 777.468 164.206 772.793 173.96C766.278 187.552 761.738 195.47 755.617 203.916C751.066 210.195 752.193 210.104 761.532 203.44C769.966 197.422 775.135 190.719 783.33 175.177C787.044 168.134 792.129 160.032 794.63 157.172C802.52 148.153 811.835 143.091 822.5 142.027L828.5 141.428L824.5 140.124C818.616 138.205 800.403 137.714 795.447 139.342ZM29.304 148.956C24.401 151.946 22.531 155.54 22.551 161.931C22.573 168.554 26.904 177.566 32.815 183.288C37.655 187.973 49.521 194.208 59.5 197.311C75.036 202.141 80.241 202.521 126.717 202.22C162.919 201.986 171.018 202.192 176.614 203.49C180.288 204.342 183.43 204.903 183.596 204.737C183.763 204.57 179.477 202.52 174.072 200.179C168.667 197.839 160.478 193.397 155.873 190.308C151.268 187.219 144.66 182.778 141.189 180.439C133.782 175.448 123.481 171.419 113.948 169.784C99.814 167.361 81.218 172.432 73.97 180.687C70.225 184.953 70.068 187.267 73.764 183.726C78.719 178.979 83.988 177.765 101.915 177.239C118.15 176.763 118.303 176.737 115.915 174.901C114.587 173.88 113.866 173.034 114.314 173.022C116.532 172.962 136.332 182.242 140.739 185.408C143.51 187.399 149.54 190.796 154.139 192.957C158.737 195.119 161.825 196.906 161 196.931C157.861 197.022 146.061 192.73 134.96 187.459C117.706 179.267 103.133 177.095 95 181.504C92.612 182.799 92.679 182.836 96.5 182.335C100.629 181.794 102.825 182.478 117.934 189.015C122.023 190.784 131.391 193.485 138.752 195.017C146.113 196.549 152.375 198.042 152.668 198.334C152.96 198.626 138.192 198.73 119.849 198.565C81.389 198.22 79.534 197.933 63 189.778C46.508 181.644 38.073 171.824 38.022 160.7C37.996 154.929 40.054 150.578 43.763 148.565L46.5 147.08L43.879 147.04C42.213 147.015 39.661 148.416 36.879 150.886L32.5 154.771V162.722C32.5 170.191 32.72 171.005 36.126 176.135C38.12 179.138 42.076 183.368 44.917 185.534C51.191 190.319 50.095 191.271 43.198 187.027C34.416 181.623 29.059 172.43 29.022 162.7C28.996 155.796 30.891 151.647 35.299 148.96L38.5 147.007H35.5C33.85 147.007 31.062 147.884 29.304 148.956ZM929.344 150.288C933.588 154.291 934.826 159.462 933.093 165.943C930.639 175.119 923.183 182.255 908.5 189.481C890.515 198.333 890.821 198.286 849 198.542C827.77 198.672 813.755 198.411 815.5 197.918C817.15 197.452 824.176 196.174 831.114 195.078C843.03 193.195 848.314 191.598 862.5 185.589C865.8 184.191 870.075 183.023 872 182.993C875.121 182.945 875.286 182.815 873.525 181.794C870.186 179.858 864.194 179.21 856.962 180.004C851.475 180.607 847.21 182.105 836.275 187.273C822.945 193.573 812.314 197.647 811.452 196.785C811.222 196.555 814.739 194.408 819.267 192.013C823.795 189.619 830.121 185.897 833.325 183.742C840.394 178.987 848.4 175.351 853.622 174.525L857.5 173.911L854.298 175.706C851.121 177.486 851.23 177.5 868.298 177.5C887.925 177.5 892.666 178.466 897.69 183.49C899.983 185.783 901 186.314 901 185.216C901 182.437 891.597 174.366 885.877 172.237C878.294 169.414 867.982 168.605 857.94 170.046C845.536 171.826 837.975 175.041 827.376 183.042C816.241 191.448 807.005 196.827 797.264 200.576C793.285 202.108 790.135 203.466 790.264 203.594C790.394 203.722 792.525 203.421 795 202.926C797.532 202.419 817.865 202.284 841.5 202.617C877.041 203.118 885.091 202.964 893.847 201.616C905.279 199.857 919.477 195.385 928.129 190.82C943.877 182.511 952.586 166.025 947.148 154.816C944.679 149.724 942.598 148.244 936.794 147.45L932.5 146.863L935.884 148.621C939.81 150.661 942.945 156.633 942.978 162.135C943.035 171.58 936.471 182.295 927.356 187.637C924.91 189.07 922.74 190.073 922.532 189.866C922.325 189.658 924.696 187.463 927.8 184.988C931.821 181.782 934.415 178.62 936.817 173.994C939.785 168.278 940.138 166.795 939.77 161.613C939.381 156.13 939.036 155.428 934.735 151.363C932.195 148.963 929.158 147 927.987 147C926.09 147 926.237 147.358 929.344 150.288ZM237.242 156.075C230.566 158.704 222.703 166.291 219.481 173.213C215.854 181.004 215.952 192.4 219.71 199.827C223.202 206.729 231.443 214.231 238.753 217.165C243.592 219.106 246.238 219.46 255.5 219.402C267.738 219.325 274.195 217.508 281.611 212.054C286.658 208.343 291.246 200.209 290.807 195.748L290.488 192.5L288.317 196.568C283.05 206.435 272.158 212.156 258.5 212.231C245.577 212.302 236.269 207.218 230.957 197.187C229.3 194.059 228.158 192.4 228.419 193.5C228.68 194.6 229.213 197.3 229.604 199.5C230.253 203.157 230.171 203.381 228.647 202.119C225.617 199.609 223.788 190.672 224.159 180.179C224.477 171.155 224.72 170.183 227.746 165.825C233.471 157.582 245.751 153.606 257 156.355C259.925 157.07 260.287 156.989 259.205 155.861C256.957 153.517 243.401 153.649 237.242 156.075ZM709.5 157.925C700.827 162.843 695.476 168.657 693.501 175.309C691.621 181.638 691.622 184.085 693.507 191.54C695.29 198.592 699.117 202.568 706.772 205.321C712.646 207.433 722.08 207.298 722.808 205.091C723.148 204.059 722.767 203.881 721.386 204.426C715.047 206.928 707.182 205.707 702.102 201.432C698.687 198.559 695 189.679 695 184.329C695 175.579 699.768 167.743 707.315 164.09C711.791 161.923 721.727 161.353 727 162.962C729.34 163.676 729.372 163.771 727.5 164.446C721.606 166.571 721.492 166.732 725.832 166.805C732.32 166.913 736.56 170.148 743.053 179.946C746.158 184.63 746.316 184.58 746.013 179C745.722 173.642 742.354 168.661 736.352 164.708C730.128 160.609 722.931 158.814 715.023 159.388L709.546 159.786L711.884 157.893C715.205 155.203 726.06 155.302 733.51 158.09C740.029 160.529 746.23 167.427 748.081 174.299C750.002 181.437 747.667 195.894 743.903 200.155C742.084 202.216 741.915 202.258 742.515 200.5C744.005 196.131 744.088 191.337 742.729 188.154L741.3 184.807L740.717 190.451C739.556 201.699 733.027 208.372 720.336 211.28C705.738 214.625 687.408 207.039 682.423 195.589L681.078 192.5L681.039 196.29C680.919 207.943 695.033 218.299 712.903 219.669C730.319 221.004 745.468 212.963 752.459 198.673C754.628 194.239 755.142 191.769 755.166 185.654C755.217 172.718 750.031 164.493 737.671 157.905C732.647 155.227 730.203 154.582 724.025 154.3C716.813 153.97 716.209 154.121 709.5 157.925ZM242.308 160.941C236.033 163.2 230.394 167.337 228.441 171.114C227.539 172.858 227.01 176.818 227.026 181.7L227.052 189.5L229.383 182.657C232.083 174.734 237.742 168.278 243.113 166.994C246.209 166.253 246.307 166.123 244.25 165.475C238.109 163.541 245.14 161.556 255.963 162.168C264.671 162.66 270.139 166.086 273.91 173.413C281.264 187.704 271.643 205.892 256.684 205.978C254.586 205.99 251.998 205.534 250.934 204.965C249.637 204.27 249 204.264 249 204.946C249 206.472 253.506 207.302 258.949 206.779C265.681 206.132 272.338 201.985 275.612 196.399C278.751 191.042 279.957 180.43 278.075 174.726C276.671 170.473 269.896 162.515 265.935 160.466C261.825 158.341 248.804 158.603 242.308 160.941ZM126.5 164.038C138.173 165.826 149.584 171.432 160 180.499C168.791 188.151 177.344 193.726 192.141 201.449C203.373 207.312 213 211.509 213 210.542C213 210.339 209.558 208.473 205.351 206.394C197.556 202.542 192.611 198.239 178.746 183.239C171.061 174.925 162.684 169.139 153.723 165.953C148.73 164.179 144.831 163.68 134 163.431C122.926 163.176 121.578 163.285 126.5 164.038ZM823.112 164.581C810.984 167.842 804.843 172.441 786.409 192.065C779.34 199.59 777.105 201.258 767.984 205.815C756.82 211.392 756.175 212.426 766.227 208.633C782.73 202.406 801.718 191.252 812 181.745C822.872 171.693 833.657 166.038 843.461 165.251C847.643 164.915 849.657 164.398 848.827 163.872C846.688 162.516 828.977 163.003 823.112 164.581ZM12.953 195.356C8.802 196.841 0 202.699 0 203.977C0 205.246 10.794 207.305 13.347 206.524C14.531 206.161 17.075 205.399 19 204.829C20.925 204.26 31.5 203.502 42.5 203.147L62.5 202.5L46.943 198.25C30.206 193.678 20.061 192.814 12.953 195.356ZM929.5 196.481C925.1 197.848 918.463 199.685 914.75 200.563C911.037 201.442 908 202.398 908 202.689C908 202.98 912.838 202.91 918.75 202.533C930.161 201.805 942.619 202.925 954.336 205.732C960.084 207.108 961.909 207.172 965.808 206.129C971.606 204.578 971.719 204.452 969.502 202.002C962.575 194.347 944.433 191.844 929.5 196.481ZM122.5 206.189C115.35 206.679 94.425 206.832 76 206.528C35.601 205.861 26.382 207 15.886 213.952C11.188 217.064 7.48402 223.095 8.15302 226.545C8.73202 229.533 10.697 229.265 11.328 226.112C12.385 220.823 23.17 212.29 27.667 213.184C28.693 213.388 27.348 214.812 23.87 217.205C19.38 220.294 15 225.28 15 227.302C15 227.573 18.617 225.374 23.038 222.415C27.845 219.198 33.977 216.131 38.288 214.787C46.26 212.303 54.286 212.088 103.5 213.037C121.753 213.389 129.775 213.143 137 212.009C143.843 210.935 153.77 210.556 172.5 210.656C186.8 210.732 198.05 210.631 197.5 210.431C196.95 210.232 188.653 208.929 179.062 207.535C160.37 204.818 147.094 204.502 122.5 206.189ZM800.832 206.007C790.872 206.906 771.856 209.868 771.039 210.648C770.786 210.89 780.236 210.956 792.039 210.794C808.362 210.57 817.091 210.945 828.5 212.357C842.433 214.082 845.819 214.124 876.106 212.954C910.814 211.612 925.611 211.966 933.204 214.319C937.601 215.681 947.628 220.974 952.75 224.635C954.051 225.565 955 225.785 955 225.157C955 223.201 948.775 216.926 944.845 214.921C942.73 213.842 941 212.765 941 212.528C941 211.609 950.568 215.033 952.969 216.81C956.962 219.766 960.185 225.126 959.533 227.725C958.909 230.21 959.914 230.686 961.8 228.8C965.438 225.162 961.218 217.169 953.083 212.293C943.915 206.798 941.056 206.536 890 206.514C864.425 206.503 836.075 206.188 827 205.815C817.925 205.441 806.149 205.528 800.832 206.007ZM281.813 222.683C282.534 222.972 283.397 222.936 283.729 222.604C284.061 222.272 283.471 222.036 282.417 222.079C281.252 222.127 281.015 222.364 281.813 222.683ZM81 226.946C82.925 227.428 97.1 228.65 112.5 229.661C136.595 231.244 153.958 231.497 237 231.477C311.26 231.459 336.035 231.145 344.5 230.117C350.55 229.382 356.175 228.369 357 227.865C357.989 227.262 356.966 227.115 354 227.432C351.525 227.697 347.25 228.141 344.5 228.418C341.75 228.696 325.1 228.95 307.5 228.982C266.731 229.058 87.966 227.101 82 226.514C77.798 226.1 77.732 226.129 81 226.946ZM871.741 226.592C870.905 227.428 714.084 229.347 669 229.072C648.375 228.946 626.577 228.439 620.561 227.944C614.544 227.45 609.464 227.203 609.272 227.395C608.626 228.041 623.612 229.94 637.62 230.986C646.228 231.63 685.301 231.9 740.5 231.697C822.464 231.396 831.552 231.194 855.461 229.141C880.755 226.968 887.498 226 877.333 226C874.583 226 872.067 226.266 871.741 226.592ZM941.75 254.408C941.338 262.058 940.986 294.458 940.969 326.408C940.952 358.359 940.514 387.765 939.996 391.755C937.545 410.626 926.507 420.83 904.5 424.572C888.937 427.217 842.238 430.193 769 433.205C751.143 433.939 698.06 434.458 634.5 434.52C537.123 434.614 529.028 434.751 523 436.402C508.96 440.246 498.68 447.071 493.257 456.147C490.289 461.113 490.117 461.849 491.226 464.788C492.704 468.704 493.123 468.753 495.196 465.25C499.933 457.246 511.379 449.325 523.02 445.994C533.177 443.087 559.054 442.22 639 442.108C702.675 442.019 767.56 440.812 808 438.964C841.422 437.436 895.115 434.145 906.387 432.933C922.396 431.211 932.49 426.505 937.995 418.195C944.467 408.423 944.265 412.049 943.339 322C942.752 264.973 942.275 244.676 941.75 254.408ZM28.51 323.706C27.972 382.647 28.078 405.626 28.902 408.663C30.531 414.674 35.903 422.005 41.416 425.741C47.493 429.859 54.16 431.875 65.5 433.025C79.996 434.494 137.247 437.857 166.5 438.957C181.35 439.515 198 440.242 203.5 440.571C209 440.9 263.45 441.546 324.5 442.007C442.433 442.897 441.766 442.867 454.65 447.771C462.047 450.587 471.508 457.561 475.727 463.309L479.366 468.266L481.183 466.022C483.54 463.112 483.551 463.177 479.75 457.423C472.843 446.966 462.796 439.87 450 436.411C444.006 434.791 435.095 434.642 335.5 434.496C272.418 434.404 216.062 433.852 200 433.17C125.313 430 92.53 427.966 68.919 425.038C60.117 423.947 51.971 421.122 45.93 417.065C41.257 413.926 34.745 405.012 32.878 399.197C32.03 396.557 31.501 373.841 31.03 319.768C30.667 278.116 30.117 243.784 29.808 243.475C29.499 243.166 28.915 279.27 28.51 323.706ZM469.539 263.112C423.607 269.804 398.666 310.723 417.189 349C423.912 362.893 438.994 374.142 457.558 379.109C473.413 383.351 504.183 382.512 520.414 377.395L525.53 375.783L528.28 365.642C529.793 360.064 531.024 354.712 531.015 353.75C530.987 350.518 527.4 351.915 524.167 356.416C517.284 366.001 505.537 371.838 491.292 372.751C475.077 373.79 462.041 369.132 452.589 358.923C445.837 351.63 443.504 347.292 440.938 337.259C437.22 322.72 438.893 305.609 445.188 293.799C453.573 278.067 465.885 271.024 485 271.024C493.884 271.024 500.867 272.432 507.543 275.569C512.962 278.116 521.441 286.778 522.93 291.287C523.816 293.972 524.725 295 526.213 295C528.087 295 528.215 294.583 527.636 290.36C527.286 287.809 527 282.055 527 277.574V269.428L517.25 266.748C501.055 262.296 484.042 260.999 469.539 263.112ZM602.193 263.001C566.854 267.987 542.932 294.669 545.339 326.414C546.296 339.033 549.212 346.758 556.857 356.932C568.661 372.642 586.536 380.781 611.348 381.744C637.701 382.767 657.203 376.188 671.633 361.408C684.043 348.697 689.807 326.534 685.479 308.175C683.019 297.737 679.234 291.238 670.5 282.454C661.332 273.233 654.671 269.345 641.501 265.528C631.418 262.606 613.264 261.439 602.193 263.001ZM149.667 264.667C148.185 266.148 149.207 267.009 153.206 267.649C155.54 268.022 158.434 269.343 159.706 270.615L162 272.909V321.378V369.847L159.409 372.926C157.646 375.021 155.568 376.205 152.909 376.631C150.566 377.005 149 377.806 149 378.628C149 379.745 153.41 380.046 172.75 380.25C218.132 380.728 225.466 380.426 236.239 377.64C249.85 374.119 258.975 369.133 267.514 360.55C275.532 352.49 281.123 342.326 283.048 332.308C284.721 323.597 283.834 307.89 281.269 300.832C276.185 286.843 264.211 275.384 248.474 269.448C235.334 264.492 229.924 264 188.579 264C167.544 264 150.033 264.3 149.667 264.667ZM296.345 265.25C295.487 266.64 297.101 268 299.609 268C302.82 268 307.582 270.468 308.379 272.545C309.406 275.223 309.094 368.623 308.048 371.374C307.007 374.111 304.114 376.015 299.575 376.949C297.966 377.28 296.466 378.102 296.241 378.776C295.923 379.73 306.512 380 344.293 380H392.752L395.876 367.526C397.594 360.666 399 354.816 399 354.526C399 354.237 398.212 354.016 397.25 354.037C396.288 354.057 394.222 356.09 392.66 358.554C386.046 368.99 378.912 371.424 354.805 371.468C341.618 371.492 336.778 371.17 335.805 370.204C334.387 368.796 333.2 345.548 333.864 332.159L334.228 324.817L348.543 325.159C361.225 325.461 363.18 325.74 365.679 327.606C367.234 328.767 368.727 331.01 369.006 332.606C369.364 334.647 370.174 335.594 371.756 335.82L374 336.139V320.07C374 304.667 373.917 304 372 304C370.86 304 370 304.667 370 305.55C370 308.518 366.944 312.978 363.733 314.697C361.138 316.085 357.836 316.434 347 316.463L333.5 316.5L333.55 312.75C333.577 310.688 333.69 300.9 333.8 291L334 273L349.75 273.024C358.413 273.038 367.525 273.51 370 274.074C376.889 275.642 381.542 279.218 384.182 284.973C385.695 288.271 387.102 290 388.274 290C389.908 290 390.036 288.938 389.78 277.504L389.5 265.008L343.154 264.754C317.664 264.614 296.6 264.837 296.345 265.25ZM698 265.393C698 266.912 700.098 268 703.026 268C704.05 268 706.151 269.086 707.694 270.412L710.5 272.825L710.856 292.662C711.052 303.573 710.887 325.698 710.49 341.83C709.799 369.855 709.671 371.271 707.618 373.658C706.436 375.032 703.934 376.471 702.059 376.854C700.184 377.238 698.466 378.102 698.241 378.776C697.927 379.719 703.47 380 722.417 380C747.161 380 751.896 379.262 742.434 376.879C734.88 374.977 734.554 373.903 734.161 349.65L733.821 328.707L742.627 329.256C752.923 329.899 750.667 327.912 766.756 350.5C779.912 368.97 785.065 374.622 791.5 377.637C796.07 379.779 797.84 379.981 812.083 379.99C824.883 379.998 827.667 379.746 827.667 378.58C827.667 377.746 826.207 376.886 824.13 376.497C814.843 374.754 810.021 370.389 792.009 347.415C785.504 339.118 778.021 330.428 775.38 328.104C771.542 324.725 770.872 323.693 772.04 322.954C772.843 322.446 774.05 322.024 774.721 322.015C778.082 321.973 787.529 316.566 791.928 312.167C805.395 298.7 801.206 278.288 783.077 269.039C774.389 264.607 768.555 264.03 732.25 264.015C703.634 264.002 698 264.229 698 265.393ZM602.5 272.348C592.304 275.719 583.599 282.986 579.031 291.939C571.101 307.484 571.051 332.826 578.917 349.636C588.841 370.842 613.642 379.636 635.416 369.667C643.32 366.049 648.444 360.863 652.886 351.988C657.832 342.107 659.441 333.002 658.715 319.013C657.607 297.659 648.545 281.91 633.225 274.712C627.287 271.922 625.329 271.522 616.5 271.289C610.197 271.123 605.021 271.514 602.5 272.348ZM191.5 272.837L186.5 273.5L186.239 317.354C186.068 346.164 186.346 362.57 187.048 365.179C188.404 370.216 191.782 371.761 203.194 372.565C213.417 373.286 225.4 371.289 233.315 367.544C248.134 360.534 255.961 344.969 255.968 322.5C255.975 297.437 245.37 281.263 224.714 274.834C217.983 272.739 200.276 271.675 191.5 272.837ZM736.232 273.038L733.963 273.949L734.232 297.225L734.5 320.5L742.5 320.824C761.681 321.601 772.169 314.451 773.707 299.547C774.968 287.334 768.473 276.703 757.816 273.538C752.183 271.865 739.862 271.58 736.232 273.038ZM40.232 299C40.232 300.925 40.438 301.712 40.689 300.75C40.941 299.788 40.941 298.212 40.689 297.25C40.438 296.288 40.232 297.075 40.232 299ZM933 375.451C933 390.453 925.81 401.031 910.943 407.902C897.753 413.998 884.901 415.329 793.5 420.068C723.98 423.672 710.497 424.096 641.789 424.849C604.547 425.256 573.815 425.851 573.495 426.171C572.056 427.611 613.595 428.06 657 427.075C858.62 422.499 893.77 420.446 912.315 412.168C925.477 406.292 932.818 395.467 933.748 380.562C934.042 375.853 933.993 372 933.641 372C933.288 372 933 373.553 933 375.451ZM38.126 379.068C37.863 390.68 43.577 401.869 53 408.189C59.312 412.424 70.362 416.313 80.5 417.868C99.636 420.804 156.653 423.521 231 425.04C259.325 425.618 301.31 426.482 324.299 426.958C368.14 427.866 414.902 427.157 396 425.871C390.775 425.515 368.203 425.173 345.841 425.112C279.992 424.931 135.77 419.14 91.5 414.9C70.133 412.853 58.475 408.91 49.329 400.635C42.997 394.906 40.315 389.597 39.147 380.476L38.253 373.5L38.126 379.068ZM480.727 426.08L476.953 428.072L479.868 432.308C481.471 434.639 483.53 438.332 484.443 440.517L486.102 444.488L488.088 440.052C489.181 437.611 491.633 433.713 493.537 431.389C497.748 426.251 497.86 425.504 494.134 427.431C491.435 428.827 491.132 428.77 488.959 426.457C486.207 423.527 485.615 423.5 480.727 426.08ZM449.862 426.514C460.222 428.91 468.259 433.469 475.266 440.923C478.695 444.571 482.39 449.231 483.477 451.278C484.565 453.325 485.719 455 486.042 455C486.365 455 487.335 453.538 488.197 451.75C494.239 439.219 506.544 431.073 526.393 426.464L532.5 425.046L525.434 425.565C512.148 426.542 501.818 431.072 494.621 439.077C492.056 441.93 489.195 445.555 488.263 447.132C487.331 448.709 486.328 449.972 486.034 449.937C485.74 449.903 483.7 447.096 481.5 443.7C474.892 433.498 463.038 426.706 449.886 425.586L443.5 425.043L449.862 426.514ZM345 449.022C331.402 449.623 323.188 450.536 314 452.467C307.125 453.912 298.575 455.566 295 456.142C287.438 457.361 262.712 457.718 249 456.807C235.398 455.903 244.43 457.574 261 459.028C268.425 459.679 277.2 460.018 280.5 459.782C290.169 459.088 320.791 455.147 329.774 453.44C334.325 452.575 342.2 451.668 347.274 451.425L356.5 450.983L351.5 452.914C348.75 453.976 347.058 454.88 347.739 454.922C348.421 454.965 351.346 454.096 354.239 452.992C357.133 451.887 362.65 450.755 366.5 450.475L373.5 449.967L368.5 451.508C361.467 453.676 352.177 458.097 351.623 459.54C350.902 461.419 356.328 459.874 366.032 455.438C373.103 452.205 375.714 451.53 381.857 451.349C385.904 451.229 389.911 450.865 390.761 450.538C391.612 450.212 395.632 450.246 399.696 450.614L407.083 451.283L403.174 453.033C399.015 454.895 396 458.323 396 461.187C396 463.348 400.199 465.903 400.798 464.106C401.014 463.457 402.279 461.633 403.609 460.052C408.626 454.09 423.623 451.775 440.418 454.37C454.035 456.474 458.661 458.986 462.406 466.308C465.102 471.581 465.227 472.299 464.1 476.062C463.43 478.296 461.35 481.82 459.478 483.893C450.105 494.267 433 490.493 433 478.05C433 474.996 435.866 471.092 438.25 470.899C445.086 470.345 449.542 472.423 448.324 475.597C448.028 476.369 448.284 477 448.893 477C450.654 477 450.175 472.469 448.228 470.706C447.186 469.763 443.604 468.81 439.538 468.394C433.783 467.804 433.03 467.529 435.06 466.761C436.402 466.253 440.311 466.007 443.747 466.216C447.59 466.449 449.637 466.237 449.066 465.666C448.556 465.156 445.842 464.568 443.037 464.36C437.657 463.961 432.419 465.817 432.227 468.189C432.169 468.91 431.841 471.975 431.499 475C430.65 482.512 432.847 486.68 439.355 489.907C443.843 492.132 444.663 492.23 450.18 491.204C462.502 488.912 467.103 484.725 467.794 475.174C468.26 468.728 466.778 464.663 462.136 459.658C454.92 451.879 445.305 449.844 414 449.468C400.525 449.306 383.65 448.955 376.5 448.689C369.35 448.422 355.175 448.572 345 449.022ZM578.799 448.535C578.443 448.89 568.331 449.306 556.326 449.46C524.561 449.867 513.513 452.734 507.252 462.195C503.359 468.077 502.836 478.041 506.163 482.941C513.278 493.417 533.726 494.419 538.423 484.522C540.218 480.738 540.498 473.799 538.97 470.945C537.746 468.657 532.359 465.677 530.682 466.36C530.032 466.625 530.4 466.897 531.5 466.965C532.6 467.032 531.25 467.855 528.5 468.794C523.809 470.395 523.5 470.711 523.5 473.917C523.5 475.866 524.07 477.523 524.826 477.775C525.928 478.143 525.928 477.85 524.826 476.048C523.668 474.153 523.746 473.696 525.441 472.439C529.527 469.41 536.144 471.617 538.057 476.649C539.345 480.037 536.927 485.469 533.294 487.348C525.387 491.437 517.52 489.761 511.477 482.702C508.436 479.149 508 477.961 508 473.224C508 462.796 513.367 458.02 528.615 454.879C545.908 451.317 561.149 453.502 568.703 460.626C572.755 464.448 576 464.431 576 460.588C576 457.638 573.398 455.35 567.361 452.992L562.5 451.094L566.5 451.054C571.342 451.007 581.718 454.046 586.651 456.956C588.631 458.125 590.419 458.915 590.622 458.711C591.674 457.66 585.498 453.633 580.362 452.022L574.5 450.182L578.5 450.099C586.542 449.933 600.185 452.087 606.758 454.562C610.466 455.958 615.3 457.504 617.5 457.997L621.5 458.894L619 456.975C617.625 455.919 613.8 453.902 610.5 452.493L604.5 449.93L610.732 450.513C614.159 450.833 619.447 451.95 622.482 452.994C627.933 454.869 628 454.869 628 452.946C628 450.055 631.989 450.451 639.536 454.092C646.16 457.286 656.427 459.399 652.631 456.786C645.971 452.202 646.075 452.055 654.589 454.029C679.476 459.801 691.527 460.834 711.816 458.933C725.9 457.614 735.436 455.779 723.5 456.685C708.438 457.828 684.615 457.67 677.5 456.379C673.65 455.681 666.675 454.138 662 452.95C655.885 451.397 649.572 450.69 639.5 450.431C631.8 450.233 623.25 449.847 620.5 449.572C611.464 448.671 579.458 447.875 578.799 448.535ZM373.333 455.688C361.158 462.259 359.577 462.945 354.272 463.95C346.742 465.376 318.097 464.495 308.142 462.531C303.546 461.624 299.596 461.071 299.365 461.302C299.134 461.532 301.705 462.496 305.078 463.442C314.204 466.003 329.747 467.275 345.5 466.75C361.357 466.223 368.454 464.243 374.881 458.556C376.871 456.794 379.613 454.599 380.973 453.677C385.683 450.482 380.402 451.873 373.333 455.688ZM391.5 452.663C387.643 453.494 382.113 456.264 381.59 457.625C380.813 459.651 381.914 459.362 389.569 455.532C396.004 452.313 396.493 451.587 391.5 452.663ZM591 454.06C592.925 455.239 595.701 457.332 597.169 458.711C598.637 460.09 600.335 460.911 600.944 460.535C601.555 460.157 601.927 460.408 601.775 461.096C601.624 461.781 603.75 463.277 606.5 464.421C611.04 466.309 613.342 466.488 631.5 466.37C648.05 466.263 653.139 465.869 661 464.085C672.299 461.521 674.283 460.949 673.746 460.413C673.524 460.19 668.652 460.862 662.921 461.907C640.632 465.967 622.71 465.51 611.112 460.585C597.935 454.989 593.327 453.199 590.5 452.576L587.5 451.916L591 454.06ZM235.269 455.693C236.242 455.947 237.592 455.93 238.269 455.656C238.946 455.382 238.15 455.175 236.5 455.195C234.85 455.215 234.296 455.439 235.269 455.693ZM733.813 455.683C734.534 455.972 735.397 455.936 735.729 455.604C736.061 455.272 735.471 455.036 734.417 455.079C733.252 455.127 733.015 455.364 733.813 455.683ZM430.457 459.404C426.785 461.003 424 463.643 424 465.524C424 466.435 424.883 466.086 426.597 464.498C431.345 460.097 439.88 458.975 450 461.421C451.375 461.753 450.25 461.154 447.5 460.09C441.631 457.819 434.733 457.541 430.457 459.404ZM531.5 458.497C530.95 458.684 528.891 459.104 526.924 459.431C524.957 459.758 522.482 460.674 521.424 461.466C519.758 462.713 520.158 462.712 524.409 461.453C530.903 459.531 534.63 459.649 539.672 461.938C544.143 463.968 546.635 466.981 547.168 471C547.556 473.924 548.706 474.964 551.576 474.985C554.493 475.006 558.392 470.607 557.723 468.048C557.237 466.189 557.641 466 562.094 466C564.792 466 567 465.593 567 465.095C567 464.279 560.362 464.589 557.25 465.551C556.563 465.763 556 466.986 556 468.269C556 471.188 554.248 473 551.428 473C549.687 473 549.135 472.247 548.649 469.208C547.54 462.272 537.978 456.3 531.5 458.497ZM469.319 464.508C469.652 465.604 470.352 468.448 470.874 470.828C472.065 476.264 472.725 476.944 473.565 473.599C474.296 470.686 472.633 465.771 470.248 463.791C468.937 462.703 468.801 462.808 469.319 464.508ZM406.914 466.092C408.447 466.705 410.272 466.711 411.914 466.108C414.145 465.288 413.814 465.156 409.5 465.142C405.294 465.129 404.884 465.28 406.914 466.092ZM498.898 467.5C497.326 470.552 497.409 474 499.054 474C500.243 474 501.263 469.834 500.804 466.852C500.453 464.565 500.4 464.583 498.898 467.5ZM481.874 470.75C480.101 473.362 477.618 476.756 476.356 478.291C473.431 481.847 465.144 497.011 464.06 500.791C463.582 502.458 463.642 504.474 464.202 505.584C464.734 506.638 469.887 512.044 475.652 517.598L486.134 527.695L497.665 516.143C508.339 505.449 509.158 504.358 508.686 501.454C507.924 496.759 500.212 483.6 494.144 476.642C491.198 473.264 488.313 469.487 487.733 468.25C487.153 467.013 486.323 466 485.888 466C485.452 466 483.646 468.138 481.874 470.75ZM414 470.473C414 472.49 418.879 476 421.683 476C423.01 476 425.203 474.805 426.558 473.343C429.279 470.407 429.039 468.754 426.256 471.262C422.887 474.298 419.345 474.436 416.55 471.641C414.944 470.035 414 469.602 414 470.473ZM482.666 477.75C472.482 493.941 468 502.148 468 504.606C468 506.488 472.664 513.08 473.791 512.791C474.181 512.691 477.127 515.28 480.338 518.545L486.176 524.481L493.431 516.74C497.421 512.483 501.216 509 501.864 509C502.512 509 503.556 507.874 504.183 506.498C505.173 504.326 504.809 502.996 501.43 496.428C496.679 487.193 493.84 484.372 497.55 492.573C501.766 501.894 502.467 504.65 501.275 507.23C500.244 509.462 500.216 509.45 499.566 506.5C496.354 491.905 488.847 474 485.94 474C485.437 474 483.964 475.688 482.666 477.75ZM528.232 476C527.19 477.668 527.233 478 528.492 478C529.333 478 530 477.116 530 476C530 474.9 529.883 474 529.741 474C529.598 474 528.919 474.9 528.232 476ZM441 476.5C441.685 477.325 442.64 478 443.122 478C443.605 478 444 477.325 444 476.5C444 475.638 443.098 475 441.878 475C440.104 475 439.96 475.247 441 476.5ZM481.181 486.25C478.965 490.788 476.479 497.416 475.657 500.981L474.161 507.462L479.781 513.981C482.872 517.566 485.486 520.638 485.59 520.807C485.922 521.344 496.466 509.921 497.33 508.088C498.417 505.782 494.002 492.535 489.385 484.25C487.469 480.813 485.746 478 485.556 478C485.366 478 483.397 481.712 481.181 486.25ZM471.152 501.456C470.101 504.362 470.153 505.395 471.477 507.956C472.343 509.63 473.291 511 473.585 511C473.878 511 473.85 510.566 473.522 510.035C473.194 509.504 472.896 506.579 472.859 503.535C472.823 500.491 472.705 498 472.597 498C472.49 498 471.839 499.555 471.152 501.456Z"/>
</mask>
<path fill-rule="evenodd" clip-rule="evenodd" d="M481.422 5.75C478.328 10.358 477.556 12.434 477.531 16.203C477.503 20.433 477.294 20.855 475.456 20.396C472.62 19.689 469.765 23.076 470.175 26.662C470.36 28.275 471.039 29.392 471.75 29.25C472.438 29.113 473.49 28.887 474.089 28.75C476.019 28.307 479.4 33.863 479.4 37.479C479.4 43.925 471.527 48.75 467.981 44.477C467.27 43.621 465.927 43.206 464.91 43.529C460.476 44.936 456.891 36.199 461 34C463.68 32.566 463.52 30.429 460.507 27.416C458.501 25.41 457.634 25.125 456.074 25.96C453.246 27.474 452.672 30.464 454.522 34.043C455.416 35.772 455.922 37.411 455.647 37.686C454.341 38.992 451.827 31.485 452.39 27.96C452.937 24.542 452.646 23.912 448.991 20.611C441.259 13.625 436.107 17.843 443.564 25.054C445.524 26.949 448.467 30.836 450.103 33.69C453.223 39.133 458 52.094 458 55.116C458 57.572 459.105 58.02 463.431 57.317C466.013 56.898 467.5 55.996 468.223 54.41C469.227 52.207 471.807 50.474 472.721 51.388C472.961 51.628 473.283 52.978 473.438 54.389C473.741 57.149 473.226 57.457 466.5 58.534C460.395 59.512 459 60.03 459.001 61.317C459.001 62.199 466.004 62.5 486.501 62.5C507.261 62.5 514 62.205 514 61.297C514 59.883 507.893 58.014 503.25 58.006C499.846 58 498.888 56.641 501.563 55.614C502.423 55.284 504.426 55.686 506.014 56.507C507.602 57.328 510.031 58 511.412 58C513.502 58 514.097 57.329 514.961 54C515.533 51.8 516.495 48.088 517.099 45.75C518.395 40.738 524.251 29.937 528.037 25.576C531.364 21.743 533.125 18.459 532.298 17.631C529.974 15.307 521.992 19.181 519.608 23.791C518.367 26.191 517.623 26.598 515.148 26.235C512.786 25.888 511.828 26.332 510.47 28.405C508.994 30.658 508.938 31.452 510.054 34.256C511.79 38.617 511.812 38.63 513.479 36.427C514.901 34.547 514.937 34.553 514.968 36.661C515.005 39.186 509.356 44.351 507.384 43.594C506.65 43.312 504.491 43.733 502.586 44.528C499.293 45.904 498.974 45.849 496.062 43.399C493.665 41.382 493 40.021 493 37.134C493 31.874 495.496 28.649 499.022 29.354C502.2 29.99 503.011 28.435 502.24 23.185C501.901 20.871 501.123 19.818 499.442 19.396C498.161 19.075 496.638 19.106 496.057 19.465C495.383 19.881 495 18.702 495 16.214C495 13.361 493.929 10.653 491.022 6.155C488.834 2.77 486.648 0 486.163 0C485.679 0 483.546 2.588 481.422 5.75ZM520.18 29.283C519.595 29.988 518.625 31.855 518.026 33.432C516.637 37.084 518.611 35.667 521.307 31.077C523.081 28.055 522.27 26.765 520.18 29.283ZM485.141 46.591C483.412 50.385 483.718 51.106 486.75 50.378C490.484 49.483 490.497 49.448 488.255 46.596L486.281 44.088L485.141 46.591ZM500 52.5C500.685 53.325 502.145 54 503.245 54C504.909 54 505.036 53.748 504 52.5C503.315 51.675 501.855 51 500.755 51C499.091 51 498.964 51.252 500 52.5ZM484.224 55.173C484.736 56.707 488.985 56.996 489.031 55.5C489.048 54.95 487.874 54.353 486.422 54.173C484.578 53.945 483.915 54.246 484.224 55.173ZM466.563 64.042C455.737 65.743 457.929 66.955 470.672 66.314C484.27 65.631 488.528 66.628 483.421 69.3C481.815 70.141 478.949 72.443 477.054 74.415L473.608 78L430.554 78.065C406.874 78.101 375.35 78.501 360.5 78.955C337.099 79.671 332.731 80.056 327.728 81.844C316.438 85.88 308.938 93.435 305.282 104.455C303.866 108.724 303.506 116.27 302.946 153.5C302.175 204.71 301.975 206.094 294.179 214.25C289.864 218.764 290.78 218.968 297.66 215.022C305.385 210.591 309.22 204.406 311.082 193.376C311.721 189.584 312.524 169.42 312.871 148.426L313.5 110.353L316.522 104.426C318.706 100.145 320.853 97.622 324.256 95.336C333.806 88.924 345.387 88.054 421.637 88.024L480.774 88L485.637 91.283C488.542 93.243 490.444 95.257 490.361 96.283C490.129 99.157 494.481 98.305 498.196 94.75C505.903 87.373 500.371 87.997 557.761 88.029C611.636 88.06 630.996 88.869 639.586 91.451C647.251 93.755 652.334 97.942 655.641 104.677L658.5 110.5L659.12 150C659.461 171.725 660.086 191.975 660.508 195C661.799 204.255 666.127 210.563 673.866 214.472L677.233 216.172L674.673 212.816C670.174 206.917 669.812 203.158 669.061 154.5C668.306 105.648 668.402 106.588 663.157 96.308C658.934 88.031 648.744 81.821 636.469 80.046C632.636 79.491 602.795 78.73 570.157 78.354C529.046 77.88 510.458 77.33 509.657 76.564C505.503 72.594 499 67.979 497.397 67.866C496.354 67.793 497.75 67.389 500.5 66.969C503.25 66.549 507.131 66.433 509.124 66.71C513.184 67.276 515.212 65.601 511.739 64.551C508.043 63.434 472.951 63.039 466.563 64.042ZM305.56 91.934C302.994 94.77 301.08 100.866 301.144 106C301.2 110.456 301.215 110.437 302.62 104C303.401 100.425 304.874 95.813 305.894 93.75C308.016 89.46 307.98 89.26 305.56 91.934ZM667.081 92.316C667.036 92.764 667.492 94.051 668.093 95.174C668.694 96.297 669.535 100.205 669.962 103.858L670.737 110.5L670.842 105C670.91 101.488 670.263 98.054 669.055 95.5C668.014 93.3 667.125 91.867 667.081 92.316ZM377.526 135C377.369 135.275 376.942 139.55 376.577 144.5C376.211 149.45 375.656 155.413 375.343 157.75C374.831 161.567 374.984 162 376.846 162C378.4 162 379.221 160.995 380.12 157.992C380.781 155.788 382.856 152.191 384.732 149.999C388.841 145.2 394.18 143.461 407.75 142.503L417 141.85V182.369V222.888L414.734 225.523C413.488 226.971 410.934 228.471 409.059 228.854C407.184 229.238 405.466 230.102 405.241 230.776C404.927 231.718 410.171 232 428 232C446.053 232 451.075 231.725 450.751 230.754C450.523 230.068 448.601 229.225 446.48 228.88C438.794 227.631 439 228.883 439 183.389V143L446.75 143.006C460.075 143.015 467.226 146.307 470.617 153.994C471.813 156.703 473.019 158 474.343 158C476.2 158 476.267 157.485 475.644 147.979L474.987 137.959L477.744 138.598C484.714 140.216 482.91 137.007 520.834 215.25L529.922 234L534.211 233.996L538.5 233.992L561.5 188.246L584.5 142.5L589.746 140C598.529 135.815 596.945 135.202 577 135.074C562.531 134.98 559 135.221 559 136.302C559 137.042 561.133 138.289 563.741 139.074C570.388 141.073 571.059 143.489 567.481 152.535C565.043 158.701 544.184 204.068 541.988 207.981C541.371 209.081 538.626 204.279 532.034 190.567C517.428 160.185 511 145.564 511 142.724C511 139.896 513.382 138 516.934 138C518.104 138 519 137.349 519 136.5C519 135.212 515.789 134.995 496.25 134.964C483.737 134.944 451.97 134.831 425.655 134.714C399.34 134.596 377.682 134.725 377.526 135ZM149.22 139.396C141.864 141.25 141.68 142.001 148.583 141.995C164.265 141.982 177.435 152.698 189.063 174.932C195.888 187.983 204.076 198.377 212.535 204.73C220.164 210.457 222.85 211.547 218.75 207.25C217.307 205.738 215.078 202.232 213.798 199.46C212.517 196.689 210.426 193.314 209.15 191.96C206.2 188.832 204.471 185.514 200.421 175.215C196.331 164.812 192.042 158.087 186.242 152.982C180.586 148.004 169.398 142.332 163.483 141.445C161.017 141.075 159 140.374 159 139.886C159 137.376 173.958 140.425 182.247 144.625C188.789 147.94 198.019 157.802 201.924 165.649C203.671 169.158 206.081 175.96 207.28 180.765C209.708 190.49 210.878 188.863 209.041 178.315C205.721 159.248 197.325 148.074 181 140.997C174.272 138.081 157.744 137.248 149.22 139.396ZM795.447 139.342C788.153 141.737 778.917 147.28 775.306 151.43C770.366 157.107 765.358 167.908 763.497 176.898C762.631 181.079 761.459 186.231 760.892 188.347C760.325 190.463 760.055 192.388 760.291 192.624C760.527 192.861 762.6 187.218 764.897 180.086C769.546 165.648 774.186 157.651 781.813 150.927C790.098 143.623 800.063 139.923 810.932 140.117L817.5 140.234L812 141.114C803.486 142.477 790.845 149.184 784.35 155.784C780.036 160.167 777.468 164.206 772.793 173.96C766.278 187.552 761.738 195.47 755.617 203.916C751.066 210.195 752.193 210.104 761.532 203.44C769.966 197.422 775.135 190.719 783.33 175.177C787.044 168.134 792.129 160.032 794.63 157.172C802.52 148.153 811.835 143.091 822.5 142.027L828.5 141.428L824.5 140.124C818.616 138.205 800.403 137.714 795.447 139.342ZM29.304 148.956C24.401 151.946 22.531 155.54 22.551 161.931C22.573 168.554 26.904 177.566 32.815 183.288C37.655 187.973 49.521 194.208 59.5 197.311C75.036 202.141 80.241 202.521 126.717 202.22C162.919 201.986 171.018 202.192 176.614 203.49C180.288 204.342 183.43 204.903 183.596 204.737C183.763 204.57 179.477 202.52 174.072 200.179C168.667 197.839 160.478 193.397 155.873 190.308C151.268 187.219 144.66 182.778 141.189 180.439C133.782 175.448 123.481 171.419 113.948 169.784C99.814 167.361 81.218 172.432 73.97 180.687C70.225 184.953 70.068 187.267 73.764 183.726C78.719 178.979 83.988 177.765 101.915 177.239C118.15 176.763 118.303 176.737 115.915 174.901C114.587 173.88 113.866 173.034 114.314 173.022C116.532 172.962 136.332 182.242 140.739 185.408C143.51 187.399 149.54 190.796 154.139 192.957C158.737 195.119 161.825 196.906 161 196.931C157.861 197.022 146.061 192.73 134.96 187.459C117.706 179.267 103.133 177.095 95 181.504C92.612 182.799 92.679 182.836 96.5 182.335C100.629 181.794 102.825 182.478 117.934 189.015C122.023 190.784 131.391 193.485 138.752 195.017C146.113 196.549 152.375 198.042 152.668 198.334C152.96 198.626 138.192 198.73 119.849 198.565C81.389 198.22 79.534 197.933 63 189.778C46.508 181.644 38.073 171.824 38.022 160.7C37.996 154.929 40.054 150.578 43.763 148.565L46.5 147.08L43.879 147.04C42.213 147.015 39.661 148.416 36.879 150.886L32.5 154.771V162.722C32.5 170.191 32.72 171.005 36.126 176.135C38.12 179.138 42.076 183.368 44.917 185.534C51.191 190.319 50.095 191.271 43.198 187.027C34.416 181.623 29.059 172.43 29.022 162.7C28.996 155.796 30.891 151.647 35.299 148.96L38.5 147.007H35.5C33.85 147.007 31.062 147.884 29.304 148.956ZM929.344 150.288C933.588 154.291 934.826 159.462 933.093 165.943C930.639 175.119 923.183 182.255 908.5 189.481C890.515 198.333 890.821 198.286 849 198.542C827.77 198.672 813.755 198.411 815.5 197.918C817.15 197.452 824.176 196.174 831.114 195.078C843.03 193.195 848.314 191.598 862.5 185.589C865.8 184.191 870.075 183.023 872 182.993C875.121 182.945 875.286 182.815 873.525 181.794C870.186 179.858 864.194 179.21 856.962 180.004C851.475 180.607 847.21 182.105 836.275 187.273C822.945 193.573 812.314 197.647 811.452 196.785C811.222 196.555 814.739 194.408 819.267 192.013C823.795 189.619 830.121 185.897 833.325 183.742C840.394 178.987 848.4 175.351 853.622 174.525L857.5 173.911L854.298 175.706C851.121 177.486 851.23 177.5 868.298 177.5C887.925 177.5 892.666 178.466 897.69 183.49C899.983 185.783 901 186.314 901 185.216C901 182.437 891.597 174.366 885.877 172.237C878.294 169.414 867.982 168.605 857.94 170.046C845.536 171.826 837.975 175.041 827.376 183.042C816.241 191.448 807.005 196.827 797.264 200.576C793.285 202.108 790.135 203.466 790.264 203.594C790.394 203.722 792.525 203.421 795 202.926C797.532 202.419 817.865 202.284 841.5 202.617C877.041 203.118 885.091 202.964 893.847 201.616C905.279 199.857 919.477 195.385 928.129 190.82C943.877 182.511 952.586 166.025 947.148 154.816C944.679 149.724 942.598 148.244 936.794 147.45L932.5 146.863L935.884 148.621C939.81 150.661 942.945 156.633 942.978 162.135C943.035 171.58 936.471 182.295 927.356 187.637C924.91 189.07 922.74 190.073 922.532 189.866C922.325 189.658 924.696 187.463 927.8 184.988C931.821 181.782 934.415 178.62 936.817 173.994C939.785 168.278 940.138 166.795 939.77 161.613C939.381 156.13 939.036 155.428 934.735 151.363C932.195 148.963 929.158 147 927.987 147C926.09 147 926.237 147.358 929.344 150.288ZM237.242 156.075C230.566 158.704 222.703 166.291 219.481 173.213C215.854 181.004 215.952 192.4 219.71 199.827C223.202 206.729 231.443 214.231 238.753 217.165C243.592 219.106 246.238 219.46 255.5 219.402C267.738 219.325 274.195 217.508 281.611 212.054C286.658 208.343 291.246 200.209 290.807 195.748L290.488 192.5L288.317 196.568C283.05 206.435 272.158 212.156 258.5 212.231C245.577 212.302 236.269 207.218 230.957 197.187C229.3 194.059 228.158 192.4 228.419 193.5C228.68 194.6 229.213 197.3 229.604 199.5C230.253 203.157 230.171 203.381 228.647 202.119C225.617 199.609 223.788 190.672 224.159 180.179C224.477 171.155 224.72 170.183 227.746 165.825C233.471 157.582 245.751 153.606 257 156.355C259.925 157.07 260.287 156.989 259.205 155.861C256.957 153.517 243.401 153.649 237.242 156.075ZM709.5 157.925C700.827 162.843 695.476 168.657 693.501 175.309C691.621 181.638 691.622 184.085 693.507 191.54C695.29 198.592 699.117 202.568 706.772 205.321C712.646 207.433 722.08 207.298 722.808 205.091C723.148 204.059 722.767 203.881 721.386 204.426C715.047 206.928 707.182 205.707 702.102 201.432C698.687 198.559 695 189.679 695 184.329C695 175.579 699.768 167.743 707.315 164.09C711.791 161.923 721.727 161.353 727 162.962C729.34 163.676 729.372 163.771 727.5 164.446C721.606 166.571 721.492 166.732 725.832 166.805C732.32 166.913 736.56 170.148 743.053 179.946C746.158 184.63 746.316 184.58 746.013 179C745.722 173.642 742.354 168.661 736.352 164.708C730.128 160.609 722.931 158.814 715.023 159.388L709.546 159.786L711.884 157.893C715.205 155.203 726.06 155.302 733.51 158.09C740.029 160.529 746.23 167.427 748.081 174.299C750.002 181.437 747.667 195.894 743.903 200.155C742.084 202.216 741.915 202.258 742.515 200.5C744.005 196.131 744.088 191.337 742.729 188.154L741.3 184.807L740.717 190.451C739.556 201.699 733.027 208.372 720.336 211.28C705.738 214.625 687.408 207.039 682.423 195.589L681.078 192.5L681.039 196.29C680.919 207.943 695.033 218.299 712.903 219.669C730.319 221.004 745.468 212.963 752.459 198.673C754.628 194.239 755.142 191.769 755.166 185.654C755.217 172.718 750.031 164.493 737.671 157.905C732.647 155.227 730.203 154.582 724.025 154.3C716.813 153.97 716.209 154.121 709.5 157.925ZM242.308 160.941C236.033 163.2 230.394 167.337 228.441 171.114C227.539 172.858 227.01 176.818 227.026 181.7L227.052 189.5L229.383 182.657C232.083 174.734 237.742 168.278 243.113 166.994C246.209 166.253 246.307 166.123 244.25 165.475C238.109 163.541 245.14 161.556 255.963 162.168C264.671 162.66 270.139 166.086 273.91 173.413C281.264 187.704 271.643 205.892 256.684 205.978C254.586 205.99 251.998 205.534 250.934 204.965C249.637 204.27 249 204.264 249 204.946C249 206.472 253.506 207.302 258.949 206.779C265.681 206.132 272.338 201.985 275.612 196.399C278.751 191.042 279.957 180.43 278.075 174.726C276.671 170.473 269.896 162.515 265.935 160.466C261.825 158.341 248.804 158.603 242.308 160.941ZM126.5 164.038C138.173 165.826 149.584 171.432 160 180.499C168.791 188.151 177.344 193.726 192.141 201.449C203.373 207.312 213 211.509 213 210.542C213 210.339 209.558 208.473 205.351 206.394C197.556 202.542 192.611 198.239 178.746 183.239C171.061 174.925 162.684 169.139 153.723 165.953C148.73 164.179 144.831 163.68 134 163.431C122.926 163.176 121.578 163.285 126.5 164.038ZM823.112 164.581C810.984 167.842 804.843 172.441 786.409 192.065C779.34 199.59 777.105 201.258 767.984 205.815C756.82 211.392 756.175 212.426 766.227 208.633C782.73 202.406 801.718 191.252 812 181.745C822.872 171.693 833.657 166.038 843.461 165.251C847.643 164.915 849.657 164.398 848.827 163.872C846.688 162.516 828.977 163.003 823.112 164.581ZM12.953 195.356C8.802 196.841 0 202.699 0 203.977C0 205.246 10.794 207.305 13.347 206.524C14.531 206.161 17.075 205.399 19 204.829C20.925 204.26 31.5 203.502 42.5 203.147L62.5 202.5L46.943 198.25C30.206 193.678 20.061 192.814 12.953 195.356ZM929.5 196.481C925.1 197.848 918.463 199.685 914.75 200.563C911.037 201.442 908 202.398 908 202.689C908 202.98 912.838 202.91 918.75 202.533C930.161 201.805 942.619 202.925 954.336 205.732C960.084 207.108 961.909 207.172 965.808 206.129C971.606 204.578 971.719 204.452 969.502 202.002C962.575 194.347 944.433 191.844 929.5 196.481ZM122.5 206.189C115.35 206.679 94.425 206.832 76 206.528C35.601 205.861 26.382 207 15.886 213.952C11.188 217.064 7.48402 223.095 8.15302 226.545C8.73202 229.533 10.697 229.265 11.328 226.112C12.385 220.823 23.17 212.29 27.667 213.184C28.693 213.388 27.348 214.812 23.87 217.205C19.38 220.294 15 225.28 15 227.302C15 227.573 18.617 225.374 23.038 222.415C27.845 219.198 33.977 216.131 38.288 214.787C46.26 212.303 54.286 212.088 103.5 213.037C121.753 213.389 129.775 213.143 137 212.009C143.843 210.935 153.77 210.556 172.5 210.656C186.8 210.732 198.05 210.631 197.5 210.431C196.95 210.232 188.653 208.929 179.062 207.535C160.37 204.818 147.094 204.502 122.5 206.189ZM800.832 206.007C790.872 206.906 771.856 209.868 771.039 210.648C770.786 210.89 780.236 210.956 792.039 210.794C808.362 210.57 817.091 210.945 828.5 212.357C842.433 214.082 845.819 214.124 876.106 212.954C910.814 211.612 925.611 211.966 933.204 214.319C937.601 215.681 947.628 220.974 952.75 224.635C954.051 225.565 955 225.785 955 225.157C955 223.201 948.775 216.926 944.845 214.921C942.73 213.842 941 212.765 941 212.528C941 211.609 950.568 215.033 952.969 216.81C956.962 219.766 960.185 225.126 959.533 227.725C958.909 230.21 959.914 230.686 961.8 228.8C965.438 225.162 961.218 217.169 953.083 212.293C943.915 206.798 941.056 206.536 890 206.514C864.425 206.503 836.075 206.188 827 205.815C817.925 205.441 806.149 205.528 800.832 206.007ZM281.813 222.683C282.534 222.972 283.397 222.936 283.729 222.604C284.061 222.272 283.471 222.036 282.417 222.079C281.252 222.127 281.015 222.364 281.813 222.683ZM81 226.946C82.925 227.428 97.1 228.65 112.5 229.661C136.595 231.244 153.958 231.497 237 231.477C311.26 231.459 336.035 231.145 344.5 230.117C350.55 229.382 356.175 228.369 357 227.865C357.989 227.262 356.966 227.115 354 227.432C351.525 227.697 347.25 228.141 344.5 228.418C341.75 228.696 325.1 228.95 307.5 228.982C266.731 229.058 87.966 227.101 82 226.514C77.798 226.1 77.732 226.129 81 226.946ZM871.741 226.592C870.905 227.428 714.084 229.347 669 229.072C648.375 228.946 626.577 228.439 620.561 227.944C614.544 227.45 609.464 227.203 609.272 227.395C608.626 228.041 623.612 229.94 637.62 230.986C646.228 231.63 685.301 231.9 740.5 231.697C822.464 231.396 831.552 231.194 855.461 229.141C880.755 226.968 887.498 226 877.333 226C874.583 226 872.067 226.266 871.741 226.592ZM941.75 254.408C941.338 262.058 940.986 294.458 940.969 326.408C940.952 358.359 940.514 387.765 939.996 391.755C937.545 410.626 926.507 420.83 904.5 424.572C888.937 427.217 842.238 430.193 769 433.205C751.143 433.939 698.06 434.458 634.5 434.52C537.123 434.614 529.028 434.751 523 436.402C508.96 440.246 498.68 447.071 493.257 456.147C490.289 461.113 490.117 461.849 491.226 464.788C492.704 468.704 493.123 468.753 495.196 465.25C499.933 457.246 511.379 449.325 523.02 445.994C533.177 443.087 559.054 442.22 639 442.108C702.675 442.019 767.56 440.812 808 438.964C841.422 437.436 895.115 434.145 906.387 432.933C922.396 431.211 932.49 426.505 937.995 418.195C944.467 408.423 944.265 412.049 943.339 322C942.752 264.973 942.275 244.676 941.75 254.408ZM28.51 323.706C27.972 382.647 28.078 405.626 28.902 408.663C30.531 414.674 35.903 422.005 41.416 425.741C47.493 429.859 54.16 431.875 65.5 433.025C79.996 434.494 137.247 437.857 166.5 438.957C181.35 439.515 198 440.242 203.5 440.571C209 440.9 263.45 441.546 324.5 442.007C442.433 442.897 441.766 442.867 454.65 447.771C462.047 450.587 471.508 457.561 475.727 463.309L479.366 468.266L481.183 466.022C483.54 463.112 483.551 463.177 479.75 457.423C472.843 446.966 462.796 439.87 450 436.411C444.006 434.791 435.095 434.642 335.5 434.496C272.418 434.404 216.062 433.852 200 433.17C125.313 430 92.53 427.966 68.919 425.038C60.117 423.947 51.971 421.122 45.93 417.065C41.257 413.926 34.745 405.012 32.878 399.197C32.03 396.557 31.501 373.841 31.03 319.768C30.667 278.116 30.117 243.784 29.808 243.475C29.499 243.166 28.915 279.27 28.51 323.706ZM469.539 263.112C423.607 269.804 398.666 310.723 417.189 349C423.912 362.893 438.994 374.142 457.558 379.109C473.413 383.351 504.183 382.512 520.414 377.395L525.53 375.783L528.28 365.642C529.793 360.064 531.024 354.712 531.015 353.75C530.987 350.518 527.4 351.915 524.167 356.416C517.284 366.001 505.537 371.838 491.292 372.751C475.077 373.79 462.041 369.132 452.589 358.923C445.837 351.63 443.504 347.292 440.938 337.259C437.22 322.72 438.893 305.609 445.188 293.799C453.573 278.067 465.885 271.024 485 271.024C493.884 271.024 500.867 272.432 507.543 275.569C512.962 278.116 521.441 286.778 522.93 291.287C523.816 293.972 524.725 295 526.213 295C528.087 295 528.215 294.583 527.636 290.36C527.286 287.809 527 282.055 527 277.574V269.428L517.25 266.748C501.055 262.296 484.042 260.999 469.539 263.112ZM602.193 263.001C566.854 267.987 542.932 294.669 545.339 326.414C546.296 339.033 549.212 346.758 556.857 356.932C568.661 372.642 586.536 380.781 611.348 381.744C637.701 382.767 657.203 376.188 671.633 361.408C684.043 348.697 689.807 326.534 685.479 308.175C683.019 297.737 679.234 291.238 670.5 282.454C661.332 273.233 654.671 269.345 641.501 265.528C631.418 262.606 613.264 261.439 602.193 263.001ZM149.667 264.667C148.185 266.148 149.207 267.009 153.206 267.649C155.54 268.022 158.434 269.343 159.706 270.615L162 272.909V321.378V369.847L159.409 372.926C157.646 375.021 155.568 376.205 152.909 376.631C150.566 377.005 149 377.806 149 378.628C149 379.745 153.41 380.046 172.75 380.25C218.132 380.728 225.466 380.426 236.239 377.64C249.85 374.119 258.975 369.133 267.514 360.55C275.532 352.49 281.123 342.326 283.048 332.308C284.721 323.597 283.834 307.89 281.269 300.832C276.185 286.843 264.211 275.384 248.474 269.448C235.334 264.492 229.924 264 188.579 264C167.544 264 150.033 264.3 149.667 264.667ZM296.345 265.25C295.487 266.64 297.101 268 299.609 268C302.82 268 307.582 270.468 308.379 272.545C309.406 275.223 309.094 368.623 308.048 371.374C307.007 374.111 304.114 376.015 299.575 376.949C297.966 377.28 296.466 378.102 296.241 378.776C295.923 379.73 306.512 380 344.293 380H392.752L395.876 367.526C397.594 360.666 399 354.816 399 354.526C399 354.237 398.212 354.016 397.25 354.037C396.288 354.057 394.222 356.09 392.66 358.554C386.046 368.99 378.912 371.424 354.805 371.468C341.618 371.492 336.778 371.17 335.805 370.204C334.387 368.796 333.2 345.548 333.864 332.159L334.228 324.817L348.543 325.159C361.225 325.461 363.18 325.74 365.679 327.606C367.234 328.767 368.727 331.01 369.006 332.606C369.364 334.647 370.174 335.594 371.756 335.82L374 336.139V320.07C374 304.667 373.917 304 372 304C370.86 304 370 304.667 370 305.55C370 308.518 366.944 312.978 363.733 314.697C361.138 316.085 357.836 316.434 347 316.463L333.5 316.5L333.55 312.75C333.577 310.688 333.69 300.9 333.8 291L334 273L349.75 273.024C358.413 273.038 367.525 273.51 370 274.074C376.889 275.642 381.542 279.218 384.182 284.973C385.695 288.271 387.102 290 388.274 290C389.908 290 390.036 288.938 389.78 277.504L389.5 265.008L343.154 264.754C317.664 264.614 296.6 264.837 296.345 265.25ZM698 265.393C698 266.912 700.098 268 703.026 268C704.05 268 706.151 269.086 707.694 270.412L710.5 272.825L710.856 292.662C711.052 303.573 710.887 325.698 710.49 341.83C709.799 369.855 709.671 371.271 707.618 373.658C706.436 375.032 703.934 376.471 702.059 376.854C700.184 377.238 698.466 378.102 698.241 378.776C697.927 379.719 703.47 380 722.417 380C747.161 380 751.896 379.262 742.434 376.879C734.88 374.977 734.554 373.903 734.161 349.65L733.821 328.707L742.627 329.256C752.923 329.899 750.667 327.912 766.756 350.5C779.912 368.97 785.065 374.622 791.5 377.637C796.07 379.779 797.84 379.981 812.083 379.99C824.883 379.998 827.667 379.746 827.667 378.58C827.667 377.746 826.207 376.886 824.13 376.497C814.843 374.754 810.021 370.389 792.009 347.415C785.504 339.118 778.021 330.428 775.38 328.104C771.542 324.725 770.872 323.693 772.04 322.954C772.843 322.446 774.05 322.024 774.721 322.015C778.082 321.973 787.529 316.566 791.928 312.167C805.395 298.7 801.206 278.288 783.077 269.039C774.389 264.607 768.555 264.03 732.25 264.015C703.634 264.002 698 264.229 698 265.393ZM602.5 272.348C592.304 275.719 583.599 282.986 579.031 291.939C571.101 307.484 571.051 332.826 578.917 349.636C588.841 370.842 613.642 379.636 635.416 369.667C643.32 366.049 648.444 360.863 652.886 351.988C657.832 342.107 659.441 333.002 658.715 319.013C657.607 297.659 648.545 281.91 633.225 274.712C627.287 271.922 625.329 271.522 616.5 271.289C610.197 271.123 605.021 271.514 602.5 272.348ZM191.5 272.837L186.5 273.5L186.239 317.354C186.068 346.164 186.346 362.57 187.048 365.179C188.404 370.216 191.782 371.761 203.194 372.565C213.417 373.286 225.4 371.289 233.315 367.544C248.134 360.534 255.961 344.969 255.968 322.5C255.975 297.437 245.37 281.263 224.714 274.834C217.983 272.739 200.276 271.675 191.5 272.837ZM736.232 273.038L733.963 273.949L734.232 297.225L734.5 320.5L742.5 320.824C761.681 321.601 772.169 314.451 773.707 299.547C774.968 287.334 768.473 276.703 757.816 273.538C752.183 271.865 739.862 271.58 736.232 273.038ZM40.232 299C40.232 300.925 40.438 301.712 40.689 300.75C40.941 299.788 40.941 298.212 40.689 297.25C40.438 296.288 40.232 297.075 40.232 299ZM933 375.451C933 390.453 925.81 401.031 910.943 407.902C897.753 413.998 884.901 415.329 793.5 420.068C723.98 423.672 710.497 424.096 641.789 424.849C604.547 425.256 573.815 425.851 573.495 426.171C572.056 427.611 613.595 428.06 657 427.075C858.62 422.499 893.77 420.446 912.315 412.168C925.477 406.292 932.818 395.467 933.748 380.562C934.042 375.853 933.993 372 933.641 372C933.288 372 933 373.553 933 375.451ZM38.126 379.068C37.863 390.68 43.577 401.869 53 408.189C59.312 412.424 70.362 416.313 80.5 417.868C99.636 420.804 156.653 423.521 231 425.04C259.325 425.618 301.31 426.482 324.299 426.958C368.14 427.866 414.902 427.157 396 425.871C390.775 425.515 368.203 425.173 345.841 425.112C279.992 424.931 135.77 419.14 91.5 414.9C70.133 412.853 58.475 408.91 49.329 400.635C42.997 394.906 40.315 389.597 39.147 380.476L38.253 373.5L38.126 379.068ZM480.727 426.08L476.953 428.072L479.868 432.308C481.471 434.639 483.53 438.332 484.443 440.517L486.102 444.488L488.088 440.052C489.181 437.611 491.633 433.713 493.537 431.389C497.748 426.251 497.86 425.504 494.134 427.431C491.435 428.827 491.132 428.77 488.959 426.457C486.207 423.527 485.615 423.5 480.727 426.08ZM449.862 426.514C460.222 428.91 468.259 433.469 475.266 440.923C478.695 444.571 482.39 449.231 483.477 451.278C484.565 453.325 485.719 455 486.042 455C486.365 455 487.335 453.538 488.197 451.75C494.239 439.219 506.544 431.073 526.393 426.464L532.5 425.046L525.434 425.565C512.148 426.542 501.818 431.072 494.621 439.077C492.056 441.93 489.195 445.555 488.263 447.132C487.331 448.709 486.328 449.972 486.034 449.937C485.74 449.903 483.7 447.096 481.5 443.7C474.892 433.498 463.038 426.706 449.886 425.586L443.5 425.043L449.862 426.514ZM345 449.022C331.402 449.623 323.188 450.536 314 452.467C307.125 453.912 298.575 455.566 295 456.142C287.438 457.361 262.712 457.718 249 456.807C235.398 455.903 244.43 457.574 261 459.028C268.425 459.679 277.2 460.018 280.5 459.782C290.169 459.088 320.791 455.147 329.774 453.44C334.325 452.575 342.2 451.668 347.274 451.425L356.5 450.983L351.5 452.914C348.75 453.976 347.058 454.88 347.739 454.922C348.421 454.965 351.346 454.096 354.239 452.992C357.133 451.887 362.65 450.755 366.5 450.475L373.5 449.967L368.5 451.508C361.467 453.676 352.177 458.097 351.623 459.54C350.902 461.419 356.328 459.874 366.032 455.438C373.103 452.205 375.714 451.53 381.857 451.349C385.904 451.229 389.911 450.865 390.761 450.538C391.612 450.212 395.632 450.246 399.696 450.614L407.083 451.283L403.174 453.033C399.015 454.895 396 458.323 396 461.187C396 463.348 400.199 465.903 400.798 464.106C401.014 463.457 402.279 461.633 403.609 460.052C408.626 454.09 423.623 451.775 440.418 454.37C454.035 456.474 458.661 458.986 462.406 466.308C465.102 471.581 465.227 472.299 464.1 476.062C463.43 478.296 461.35 481.82 459.478 483.893C450.105 494.267 433 490.493 433 478.05C433 474.996 435.866 471.092 438.25 470.899C445.086 470.345 449.542 472.423 448.324 475.597C448.028 476.369 448.284 477 448.893 477C450.654 477 450.175 472.469 448.228 470.706C447.186 469.763 443.604 468.81 439.538 468.394C433.783 467.804 433.03 467.529 435.06 466.761C436.402 466.253 440.311 466.007 443.747 466.216C447.59 466.449 449.637 466.237 449.066 465.666C448.556 465.156 445.842 464.568 443.037 464.36C437.657 463.961 432.419 465.817 432.227 468.189C432.169 468.91 431.841 471.975 431.499 475C430.65 482.512 432.847 486.68 439.355 489.907C443.843 492.132 444.663 492.23 450.18 491.204C462.502 488.912 467.103 484.725 467.794 475.174C468.26 468.728 466.778 464.663 462.136 459.658C454.92 451.879 445.305 449.844 414 449.468C400.525 449.306 383.65 448.955 376.5 448.689C369.35 448.422 355.175 448.572 345 449.022ZM578.799 448.535C578.443 448.89 568.331 449.306 556.326 449.46C524.561 449.867 513.513 452.734 507.252 462.195C503.359 468.077 502.836 478.041 506.163 482.941C513.278 493.417 533.726 494.419 538.423 484.522C540.218 480.738 540.498 473.799 538.97 470.945C537.746 468.657 532.359 465.677 530.682 466.36C530.032 466.625 530.4 466.897 531.5 466.965C532.6 467.032 531.25 467.855 528.5 468.794C523.809 470.395 523.5 470.711 523.5 473.917C523.5 475.866 524.07 477.523 524.826 477.775C525.928 478.143 525.928 477.85 524.826 476.048C523.668 474.153 523.746 473.696 525.441 472.439C529.527 469.41 536.144 471.617 538.057 476.649C539.345 480.037 536.927 485.469 533.294 487.348C525.387 491.437 517.52 489.761 511.477 482.702C508.436 479.149 508 477.961 508 473.224C508 462.796 513.367 458.02 528.615 454.879C545.908 451.317 561.149 453.502 568.703 460.626C572.755 464.448 576 464.431 576 460.588C576 457.638 573.398 455.35 567.361 452.992L562.5 451.094L566.5 451.054C571.342 451.007 581.718 454.046 586.651 456.956C588.631 458.125 590.419 458.915 590.622 458.711C591.674 457.66 585.498 453.633 580.362 452.022L574.5 450.182L578.5 450.099C586.542 449.933 600.185 452.087 606.758 454.562C610.466 455.958 615.3 457.504 617.5 457.997L621.5 458.894L619 456.975C617.625 455.919 613.8 453.902 610.5 452.493L604.5 449.93L610.732 450.513C614.159 450.833 619.447 451.95 622.482 452.994C627.933 454.869 628 454.869 628 452.946C628 450.055 631.989 450.451 639.536 454.092C646.16 457.286 656.427 459.399 652.631 456.786C645.971 452.202 646.075 452.055 654.589 454.029C679.476 459.801 691.527 460.834 711.816 458.933C725.9 457.614 735.436 455.779 723.5 456.685C708.438 457.828 684.615 457.67 677.5 456.379C673.65 455.681 666.675 454.138 662 452.95C655.885 451.397 649.572 450.69 639.5 450.431C631.8 450.233 623.25 449.847 620.5 449.572C611.464 448.671 579.458 447.875 578.799 448.535ZM373.333 455.688C361.158 462.259 359.577 462.945 354.272 463.95C346.742 465.376 318.097 464.495 308.142 462.531C303.546 461.624 299.596 461.071 299.365 461.302C299.134 461.532 301.705 462.496 305.078 463.442C314.204 466.003 329.747 467.275 345.5 466.75C361.357 466.223 368.454 464.243 374.881 458.556C376.871 456.794 379.613 454.599 380.973 453.677C385.683 450.482 380.402 451.873 373.333 455.688ZM391.5 452.663C387.643 453.494 382.113 456.264 381.59 457.625C380.813 459.651 381.914 459.362 389.569 455.532C396.004 452.313 396.493 451.587 391.5 452.663ZM591 454.06C592.925 455.239 595.701 457.332 597.169 458.711C598.637 460.09 600.335 460.911 600.944 460.535C601.555 460.157 601.927 460.408 601.775 461.096C601.624 461.781 603.75 463.277 606.5 464.421C611.04 466.309 613.342 466.488 631.5 466.37C648.05 466.263 653.139 465.869 661 464.085C672.299 461.521 674.283 460.949 673.746 460.413C673.524 460.19 668.652 460.862 662.921 461.907C640.632 465.967 622.71 465.51 611.112 460.585C597.935 454.989 593.327 453.199 590.5 452.576L587.5 451.916L591 454.06ZM235.269 455.693C236.242 455.947 237.592 455.93 238.269 455.656C238.946 455.382 238.15 455.175 236.5 455.195C234.85 455.215 234.296 455.439 235.269 455.693ZM733.813 455.683C734.534 455.972 735.397 455.936 735.729 455.604C736.061 455.272 735.471 455.036 734.417 455.079C733.252 455.127 733.015 455.364 733.813 455.683ZM430.457 459.404C426.785 461.003 424 463.643 424 465.524C424 466.435 424.883 466.086 426.597 464.498C431.345 460.097 439.88 458.975 450 461.421C451.375 461.753 450.25 461.154 447.5 460.09C441.631 457.819 434.733 457.541 430.457 459.404ZM531.5 458.497C530.95 458.684 528.891 459.104 526.924 459.431C524.957 459.758 522.482 460.674 521.424 461.466C519.758 462.713 520.158 462.712 524.409 461.453C530.903 459.531 534.63 459.649 539.672 461.938C544.143 463.968 546.635 466.981 547.168 471C547.556 473.924 548.706 474.964 551.576 474.985C554.493 475.006 558.392 470.607 557.723 468.048C557.237 466.189 557.641 466 562.094 466C564.792 466 567 465.593 567 465.095C567 464.279 560.362 464.589 557.25 465.551C556.563 465.763 556 466.986 556 468.269C556 471.188 554.248 473 551.428 473C549.687 473 549.135 472.247 548.649 469.208C547.54 462.272 537.978 456.3 531.5 458.497ZM469.319 464.508C469.652 465.604 470.352 468.448 470.874 470.828C472.065 476.264 472.725 476.944 473.565 473.599C474.296 470.686 472.633 465.771 470.248 463.791C468.937 462.703 468.801 462.808 469.319 464.508ZM406.914 466.092C408.447 466.705 410.272 466.711 411.914 466.108C414.145 465.288 413.814 465.156 409.5 465.142C405.294 465.129 404.884 465.28 406.914 466.092ZM498.898 467.5C497.326 470.552 497.409 474 499.054 474C500.243 474 501.263 469.834 500.804 466.852C500.453 464.565 500.4 464.583 498.898 467.5ZM481.874 470.75C480.101 473.362 477.618 476.756 476.356 478.291C473.431 481.847 465.144 497.011 464.06 500.791C463.582 502.458 463.642 504.474 464.202 505.584C464.734 506.638 469.887 512.044 475.652 517.598L486.134 527.695L497.665 516.143C508.339 505.449 509.158 504.358 508.686 501.454C507.924 496.759 500.212 483.6 494.144 476.642C491.198 473.264 488.313 469.487 487.733 468.25C487.153 467.013 486.323 466 485.888 466C485.452 466 483.646 468.138 481.874 470.75ZM414 470.473C414 472.49 418.879 476 421.683 476C423.01 476 425.203 474.805 426.558 473.343C429.279 470.407 429.039 468.754 426.256 471.262C422.887 474.298 419.345 474.436 416.55 471.641C414.944 470.035 414 469.602 414 470.473ZM482.666 477.75C472.482 493.941 468 502.148 468 504.606C468 506.488 472.664 513.08 473.791 512.791C474.181 512.691 477.127 515.28 480.338 518.545L486.176 524.481L493.431 516.74C497.421 512.483 501.216 509 501.864 509C502.512 509 503.556 507.874 504.183 506.498C505.173 504.326 504.809 502.996 501.43 496.428C496.679 487.193 493.84 484.372 497.55 492.573C501.766 501.894 502.467 504.65 501.275 507.23C500.244 509.462 500.216 509.45 499.566 506.5C496.354 491.905 488.847 474 485.94 474C485.437 474 483.964 475.688 482.666 477.75ZM528.232 476C527.19 477.668 527.233 478 528.492 478C529.333 478 530 477.116 530 476C530 474.9 529.883 474 529.741 474C529.598 474 528.919 474.9 528.232 476ZM441 476.5C441.685 477.325 442.64 478 443.122 478C443.605 478 444 477.325 444 476.5C444 475.638 443.098 475 441.878 475C440.104 475 439.96 475.247 441 476.5ZM481.181 486.25C478.965 490.788 476.479 497.416 475.657 500.981L474.161 507.462L479.781 513.981C482.872 517.566 485.486 520.638 485.59 520.807C485.922 521.344 496.466 509.921 497.33 508.088C498.417 505.782 494.002 492.535 489.385 484.25C487.469 480.813 485.746 478 485.556 478C485.366 478 483.397 481.712 481.181 486.25ZM471.152 501.456C470.101 504.362 470.153 505.395 471.477 507.956C472.343 509.63 473.291 511 473.585 511C473.878 511 473.85 510.566 473.522 510.035C473.194 509.504 472.896 506.579 472.859 503.535C472.823 500.491 472.705 498 472.597 498C472.49 498 471.839 499.555 471.152 501.456Z" fill="white" stroke="black" stroke-width="2" mask="url(#path-1-inside-1_7_11)"/>
</svg>
